# xmcd
#
# Track frame offsets: 
#        150
#        20142
#        34435
#        52066
#        68345
#        89199
#        109718
#        128437
#        143465
#        157045
#        178201
#        197331
#
# Disc length: 2945 seconds
#
# Revision: 0
# Processed by: cddbd v1.5.1PL2 Copyright (c) Steve Scherf et al.
# Submitted via: ExactAudioCopy v0.95b4
#
DISCID=a60b7f0c
DTITLE=Olivia - Olivia
DYEAR=2003
DGENRE=R&B
TTITLE0=Bizounce
TTITLE1=Are u capable
TTITLE2=You got the damn thing
TTITLE3=Silly bitch in love
TTITLE4=It's on again
TTITLE5=Woop-T-Woo
TTITLE6=Whoadie
TTITLE7='Til he comes home
TTITLE8=Bring da roof down
TTITLE9=When 2 souls touch
TTITLE10=Lower 2 my heart
TTITLE11=Look around (ft. Jimmy Cozier
EXTD=
EXTT0=
EXTT1=
EXTT2=
EXTT3=
EXTT4=
EXTT5=
EXTT6=
EXTT7=
EXTT8=
EXTT9=
EXTT10=
EXTT11=
PLAYORDER=
